<?xml version="1.0" standalone="no"?>
<!DOCTYPE svg PUBLIC "-//W3C//DTD SVG 1.1//EN" "http://www.w3.org/Graphics/SVG/1.1/DTD/svg11.dtd" >
<svg xmlns="http://www.w3.org/2000/svg">
<metadata>
This is a custom SVG webfont generated by Font Squirrel.
Copyright   : Copyright c 2012 by Stefanie Koerner pheist All rights reserved
Designer    : Stefanie Koerner
Foundry     : pheistnet
Foundry URL : pheistnet
</metadata>
<defs>
<font id="PaperJohnnyEinhalbRegular" horiz-adv-x="1208" >
<font-face units-per-em="2048" ascent="1372" descent="-676" />
<missing-glyph horiz-adv-x="614" />
<glyph unicode=" "  horiz-adv-x="614" />
<glyph unicode="&#x09;" horiz-adv-x="614" />
<glyph unicode="&#xa0;" horiz-adv-x="614" />
<glyph unicode="!" horiz-adv-x="593" d="M102 1540h269l47 -1012l-291 17zM152 -4v336l294 -19q45 -301 46 -344q0 -10 -112.5 1.5t-227.5 25.5z" />
<glyph unicode="&#x22;" horiz-adv-x="786" d="M102 1536h207q-8 -367 -33 -449h-153q-21 437 -21 449zM455 1092v450h223l-57 -469z" />
<glyph unicode="#" horiz-adv-x="1392" d="M102 633v174h240l-8 170l-209 22v136l203 22l-9 197l197 35l21 -213h301v239h129v-155l264 22l31 -154l-209 -20v-283l237 21v-199l-241 -41l26 -256h-178l-43 238v2l-293 -2q6 -147 8 -242q-35 0 -99 1t-83 1q-37 285 -57 285h-228zM530 1042l29 -260l303 27l-28 233 h-304z" />
<glyph unicode="$" horiz-adv-x="1372" d="M102 887v620h494l4 279l109 12l10 -291h442v-129l-438 -26l12 -408l430 12l101 -950h-500l-12 -231h-176l4 231h-437v191q137 0 439 6l4 534l-467 29zM403 936l187 6l4 408l-166 -15zM741 733l17 -528q61 2 102 12t52.5 18.5t11.5 14.5l-23 473z" />
<glyph unicode="%" horiz-adv-x="1374" d="M102 1194v297l27 25l340 -19v-330q0 -12 -42 -13t-108.5 7t-118 16.5t-98.5 16.5zM195 1276l182 8l-31 143h-151v-151zM244 0l518 1516h192l-397 -1326l-57 -190h-256zM838 0l20 406l414 -21q0 -303 -12 -379q-90 -14 -422 -6zM952 92h230l-33 221h-197v-221z" />
<glyph unicode="&#x26;" horiz-adv-x="1310" d="M102 1466l86 50h416l17 -216l-326 -22l16 -420l506 8v252h158l43 -229h143q2 -16 8.5 -66.5t8.5 -70.5q-59 -12 -166 -13l41 -569h137l16 -170h-1044l-51 16zM332 172l475 31l-21 465l-454 -29v-467z" />
<glyph unicode="'" horiz-adv-x="471" d="M102 1268v248h260l-45 -312l-59 -24l-2 65z" />
<glyph unicode="(" horiz-adv-x="655" d="M102 1270q0 27 185 233l180 -112l-152 -174l72 -918l152 -193l-177 -96l-212 289q-2 35 -13.5 274.5t-23 459t-11.5 237.5z" />
<glyph unicode=")" horiz-adv-x="675" d="M123 1391l194 96l209 -227l47 -1043l-249 -207l-156 111l194 176l-71 924z" />
<glyph unicode="*" horiz-adv-x="1191" d="M111 758l311 -35l-250 252l80 98l266 -201l-33 390h195v-385l244 313l94 -76l-254 -287l326 -32v-113h-320l133 -203l-67 -51q-123 135 -152 135q-31 0 -57 -235h-115v303l-236 -203l-40 41l206 174l-315 35z" />
<glyph unicode="+" horiz-adv-x="1224" d="M102 664v241l381 -10v295l201 16l43 -305q139 -2 393 -20q8 -74 -10 -238l-403 8l14 -342l-238 19v329z" />
<glyph unicode="," horiz-adv-x="555" d="M104 307h326q31 -270 21 -305q-33 -115 -37 -135q-25 -86 -31 -113h-45l-94 246l-127 43z" />
<glyph unicode="-" d="M102 670v256q45 -2 463 -12.5t504 -12.5q16 -92 33 -256z" />
<glyph unicode="." horiz-adv-x="552" d="M102 0v317l304 -20l38 -297h-342z" />
<glyph unicode="/" horiz-adv-x="1146" d="M20 0l758 1477q0 16 15 18l331 18l-731 -1359l-78 -154h-295z" />
<glyph unicode="0" horiz-adv-x="1247" d="M102 12v1393l25 49l12 6q25 23 29 31l25 33l913 20l39 -24v-1436l-17 -92zM330 1280l22 -963l566 -22l-23 1008z" />
<glyph unicode="1" horiz-adv-x="831" d="M63 1364l345 209q281 37 309 8q27 -23 12 -1581h-362l43 1217l-291 -191z" />
<glyph unicode="2" horiz-adv-x="1300" d="M109 1323l489 150l246 34l145 -69q14 -20 45 -60.5t45 -60.5q84 -121 78 -162q-18 -111 -291 -516q-160 -238 -301 -428h615l16 -211h-985q-8 6 -5 15.5t11 38t10 48.5q2 12 4 37t5.5 47.5t5.5 44.5l557 756l45 135l-82 133l-588 -202z" />
<glyph unicode="3" horiz-adv-x="1003" d="M104 1294l17 262h760q4 -141 4 -753l-4 -78v-725h-775l35 240h488v428h-398l17 198l356 8l2 402z" />
<glyph unicode="4" horiz-adv-x="1409" d="M104 709l43 807h263q-45 -559 -45 -594q4 -43 409 -54l41 445l164 -15l-23 -430h390l-17 -223l-373 -41l41 -604h-239v668z" />
<glyph unicode="5" horiz-adv-x="1157" d="M102 872v621l13 51l938 -18l-15 -215q-610 18 -657 -4q-47 -25 -14 -236l649 -80l18 -815l-125 -176h-747l-17 195q403 20 557 20q20 0 49 56.5t48 113.5l18 57l-45 389z" />
<glyph unicode="6" horiz-adv-x="1222" d="M102 127l21 1350l92 30h905v-192l-741 -19l-23 -415l662 -21l102 -100l-39 -760h-962zM338 154h489l56 79l22 474h-567v-553z" />
<glyph unicode="7" horiz-adv-x="1253" d="M63 1507h793l21 -589h315v-211h-340l59 -707h-254l-18 748h-332q-6 14 -3 47.5t11 83.5h303v399l-538 -21z" />
<glyph unicode="8" horiz-adv-x="1165" d="M102 1507h914q4 -16 2 -40.5t-6 -101.5t-4 -132l-15 -332q27 -55 51 -70l19 -831h-932q-10 0 -12 12.5t0 24.5l4 10zM315 1331l35 -198l19 -195h66q42 0 129 3t145.5 10t56.5 20l-21 407zM338 231l510 -22v471l-74 8l-436 -43v-414z" />
<glyph unicode="9" horiz-adv-x="1101" d="M102 1470l830 37l29 -8l38 -1499h-849l22 133l598 21l-45 571l-602 39zM297 940l410 -25v402l-385 -25z" />
<glyph unicode=":" horiz-adv-x="593" d="M111 1151q104 10 264 -2q43 -244 43 -281q-14 -4 -33.5 -4t-81 8.5t-96.5 13.5t-80 11q-6 191 -16 254zM152 348v289h272q4 -16 15.5 -76.5t23.5 -117t20 -95.5h-331z" />
<glyph unicode=";" horiz-adv-x="595" d="M111 782q104 10 264 -2q4 -27 15 -95.5t19.5 -120.5t8.5 -58q-14 -4 -33.5 -4t-81 7t-96.5 12t-80 11q-6 184 -16 250zM145 276h326q37 -252 21 -303q-31 -117 -37 -135q-4 -16 -15.5 -58t-15.5 -56h-43l-96 245l-127 45z" />
<glyph unicode="&#x3c;" horiz-adv-x="798" d="M106 877l416 340l158 -170l-268 -193l270 -475l-213 -84l-346 498z" />
<glyph unicode="=" horiz-adv-x="1146" d="M104 553l17 205l901 20v-225h-918zM125 983v162l919 41v-223z" />
<glyph unicode="&#x3e;" horiz-adv-x="819" d="M119 1139l213 121l383 -510l-19 -66l-340 -387l-194 119l244 342z" />
<glyph unicode="?" horiz-adv-x="1228" d="M102 1358v190h895l45 -28l80 -600l-407 -148l-23 -338h-262v420l461 150l-51 397zM410 18l18 256l221 -16l17 -256z" />
<glyph unicode="@" horiz-adv-x="1474" d="M102 162l43 702q266 205 306 223q35 18 114 19h697l47 -45l20 -899l-794 20l18 539l592 22l-60 236l-622 -45l-166 -191l-23 -495l232 -301h641h207l14 -170l-305 18l-655 43zM700 293l461 -27l-28 283l-402 -25z" />
<glyph unicode="A" horiz-adv-x="1331" d="M104 0l64 733l125 762l645 21l33 -64l252 -1452h-297l-64 596l-413 25l-66 -621h-279zM463 795h366l-69 417l-150 27h-96z" />
<glyph unicode="B" d="M102 0l21 1495l713 21l159 -314l-90 -354l137 -68l64 -659l-35 -121h-969zM362 956l285 29v365l-258 -29zM385 238l416 -27v305l-174 146h-217z" />
<glyph unicode="C" horiz-adv-x="974" d="M102 0l23 1495h637v-111l-373 -43l72 -1124l391 -43l18 -174h-768z" />
<glyph unicode="D" horiz-adv-x="1130" d="M102 0v1516l619 20l221 -156l86 -1190l-98 -151q-139 -39 -176 -39h-652zM342 1284l47 -987l344 25l53 131l-45 780z" />
<glyph unicode="E" horiz-adv-x="980" d="M102 0v1495h711l18 -98v-72h-370l-55 -383l405 -22l16 -152h-370v-573l422 -41v-154h-777z" />
<glyph unicode="F" horiz-adv-x="880" d="M117 -12l22 1454l606 22q8 -80 11 -112q2 -10 5 -50t5 -57l-363 -43v-252h369l16 -133l-337 -43v-786h-334z" />
<glyph unicode="G" horiz-adv-x="1150" d="M102 -4v1495l656 41h80q4 -76 14 -174l-399 -43v-975l315 6l-45 565l174 35l147 -946z" />
<glyph unicode="H" horiz-adv-x="1171" d="M102 0v1495l258 18l23 -532h383l22 537q162 16 168 16q4 -106 111 -1540q-43 -6 -71.5 -11.5t-84.5 -12.5q-48 -6 -65 -6h-4q-14 1 -29 5l-47 688l-141 23l-158 12q25 -551 29 -692h-394z" />
<glyph unicode="I" horiz-adv-x="589" d="M102 1516h248q2 -6 8.5 -26t10.5 -30l20 -63l96 -1397h-358z" />
<glyph unicode="J" horiz-adv-x="954" d="M104 705l183 32q74 -410 73 -428q0 -12 17.5 -25.5t46.5 -11.5q20 0 65 9l117 24l-20 1247h266l-21 -1552q-19 -1 -40 -1t-43 1h-152h-397q-6 0 -18.5 39t-16.5 61z" />
<glyph unicode="K" horiz-adv-x="1222" d="M102 8l23 1530l231 14l13 -286l14 -217l10 -70l8 -68l54 27q385 471 477 584l176 -142l-287 -411q248 -772 254 -801q8 -31 22.5 -92.5t16.5 -67.5h-342l-141 772l-223 -174q12 -473 14 -598h-320z" />
<glyph unicode="L" horiz-adv-x="841" d="M102 0v1548h269v-108v-1149q0 -20 370 -70l17 -221h-656z" />
<glyph unicode="M" horiz-adv-x="1423" d="M102 0v1546l211 -16l267 -526l243 503h279l215 -1507h-322l-106 1063l-268 -363l-99 -20l-162 440l23 -1120h-281z" />
<glyph unicode="N" horiz-adv-x="1249" d="M102 0v1530h359l186 -414l264 -508q-39 766 -47 922h223l60 -1280v-250h-232q-92 231 -139 328l-395 751l41 -1079h-320z" />
<glyph unicode="O" horiz-adv-x="1226" d="M102 1358l50 117l112 73l694 -20q84 -92 105 -156l61 -1286l-141 -86h-805l-55 254zM346 385l72 -186h485v637l-47 557l-510 -45v-963z" />
<glyph unicode="P" horiz-adv-x="1134" d="M102 -31v1563l756 20l119 -75l55 -74v-641l-645 -43l23 -725q-37 -8 -114 -14.5t-136 -8.5zM342 1360l25 -447h467l24 359l-57 110z" />
<glyph unicode="Q" horiz-adv-x="1243" d="M102 1358l50 117l112 73l711 -20q84 -92 104 -154l62 -1282l-142 -86h-192l45 -172l-170 -16l-23 188h-481l-55 254zM346 391l72 -186h203v141h116l43 -141h140v633q0 285 -48 557l-526 -47v-957z" />
<glyph unicode="R" horiz-adv-x="1253" d="M102 0v1520l603 20l278 -20l82 -318l18 -125l9 -84l-117 -159l170 -834h-258l-41 420l-47 334l-393 -27l22 -727h-326zM342 967l473 -25l76 199v186h-549v-360z" />
<glyph unicode="S" horiz-adv-x="1275" d="M102 821v88l23 604h926l18 -227l-674 -47v-268h715l57 -94l45 -854l-1065 -23l-18 274l791 72l28 404z" />
<glyph unicode="T" horiz-adv-x="1335" d="M63 1276l19 260l1192 20v-219l-463 -22l43 -682l31 -633h-350l-21 502l-45 774h-406z" />
<glyph unicode="U" horiz-adv-x="1372" d="M102 1536h260l76 -1262l525 25l26 178l21 1059h243l17 -78v-1458h-1127l-18 268z" />
<glyph unicode="V" horiz-adv-x="1290" d="M66 1559l217 16l190 -1047l211 7l193 1021h344l-375 -1556h-551z" />
<glyph unicode="W" horiz-adv-x="1454" d="M66 1554l256 -16l120 -1028l146 405l172 -18l192 -383l95 1022h342l-187 -1536h-272l-285 588l-188 -588h-205z" />
<glyph unicode="X" horiz-adv-x="1325" d="M80 0l330 735l-291 781h344l246 -504l319 495l221 -102l-375 -627l351 -778h-361l-233 602l-305 -602h-246z" />
<glyph unicode="Y" horiz-adv-x="1310" d="M82 1540l252 16l297 -540l381 532l219 -100l-500 -617l21 -831h-303l-21 868l-22 72z" />
<glyph unicode="Z" horiz-adv-x="1392" d="M102 1260v256h1035l26 -27l60 -277l-652 -911l699 -22l18 -279h-1095l38 319l725 941h-854z" />
<glyph unicode="[" horiz-adv-x="757" d="M102 0l23 1536h508v-137l-207 -64l-25 -1140l234 -21l16 -174h-549z" />
<glyph unicode="\" horiz-adv-x="839" d="M12 1516h174q111 -272 150 -345q39 -78 268 -647l158 -387l67 -145h-112q-121 6 -152 8l-235 578z" />
<glyph unicode="]" horiz-adv-x="839" d="M106 0l17 174l297 43v1106h-246l16 193h547l-22 -1516h-609z" />
<glyph unicode="^" horiz-adv-x="921" d="M131 1401l328 194h94l242 -168l-86 -79l-220 49l-215 -121z" />
<glyph unicode="_" horiz-adv-x="1392" d="M94 0q-4 57 6 199q6 0 1188 26q-4 -55 -33 -225h-387h-774z" />
<glyph unicode="`" horiz-adv-x="614" d="M123 1532l211 53l162 -364l-113 -11l-119 101z" />
<glyph unicode="a" horiz-adv-x="1177" d="M104 535l725 40v328l-688 41l-14 184h887l59 -1128h-950zM307 141h529l-54 293l-475 -24v-269z" />
<glyph unicode="b" horiz-adv-x="1249" d="M102 1501l242 17l21 -449l770 -43l12 -39l-21 -987h-1003zM340 213h608q2 20 5 53t9.5 124t10.5 167t4 155t-8 113q-47 15 -227 15q-138 0 -355 -9z" />
<glyph unicode="c" horiz-adv-x="1064" d="M102 -31v1116l816 21l18 -197l-590 -43l-24 -628l643 22l34 -262q-172 -13 -897 -29z" />
<glyph unicode="d" horiz-adv-x="1372" d="M104 0l41 1087h840l45 469h197l43 -1556h-1166zM340 852l22 -639h162h443v639h-627z" />
<glyph unicode="e" horiz-adv-x="1228" d="M102 0l21 1106l881 41l79 -17l21 -655l-748 -22l58 -258h673l33 -195h-1018zM360 948l29 -319l520 30l-4 140l-28 143z" />
<glyph unicode="f" horiz-adv-x="942" d="M61 952v156l199 41l23 356l63 31h535v-152l-299 -18l-31 -264l330 -21v-174l-332 -22l20 -885h-288l-43 952h-177z" />
<glyph unicode="g" horiz-adv-x="1290" d="M102 25l21 1101l1024 -20l41 -395v-1405l-1079 39l32 192h762l49 488h-850zM342 276q15 1 43 2q71 0 228 -8q220 -10 305 -24l-58 624l-518 25v-619z" />
<glyph unicode="h" horiz-adv-x="1269" d="M102 0v1544h222l65 -473h600l72 -88l102 -983h-280l-88 877l-455 24l22 -901h-260z" />
<glyph unicode="i" horiz-adv-x="573" d="M102 1067h273l94 -1065l-342 18zM127 1235v297h246v-281z" />
<glyph unicode="j" horiz-adv-x="471" d="M-236 -535l324 121l53 123l-22 1354l227 -33l23 -1608l-514 -172zM96 1294v254h230l18 -270z" />
<glyph unicode="k" horiz-adv-x="1167" d="M102 1505l242 17v-580l649 285l64 -158l-260 -170l258 -899h-236l-180 831l-252 -163v-668h-262z" />
<glyph unicode="l" horiz-adv-x="512" d="M90 0q-6 427 -6 744q0 555 18 774l234 16l72 -1534h-318z" />
<glyph unicode="m" horiz-adv-x="1536" d="M102 -18v1083l232 20l63 21h953l41 -29l41 -1075h-236l-20 887h-302l23 -887h-238l-20 887h-322l21 -891z" />
<glyph unicode="n" horiz-adv-x="1085" d="M102 0v1106l772 -21l44 -30l63 -1055h-262v887l-375 26v-913h-242z" />
<glyph unicode="o" horiz-adv-x="1089" d="M102 49l23 1038l10 19l840 -8l10 -135l-16 -392l-31 -602q-193 10 -389 17q-94 2 -197.5 5t-167 6t-69.5 3q-15 0 -16 23q0 11 3 26zM324 219l438 -24v714l-438 25v-715z" />
<glyph unicode="p" d="M102 -778v1863h207l795 -41l-41 -1017h-721l20 -805h-260zM342 893l25 -592h518l49 588l-146 8z" />
<glyph unicode="q" horiz-adv-x="1290" d="M102 27l21 1044l125 35l940 -21v-751v-1110l-262 16l-66 787h-758zM362 283l259 -21q115 -8 159 -8q29 0 55.5 9t36.5 20l13 8l-56 624l-467 23v-655z" />
<glyph unicode="r" horiz-adv-x="1085" d="M102 1108l209 8l129 -12h482l57 -475h-199l-45 239l-370 -26l65 -842h-305z" />
<glyph unicode="s" horiz-adv-x="1269" d="M102 1026l33 80h946v-174h-766l31 -215l758 -23l61 -694h-997v195h758l26 305h-809z" />
<glyph unicode="t" horiz-adv-x="901" d="M61 936v151h199l23 463l225 -16l22 -422l291 -22l15 -154l-289 -21l90 -915h-311l-66 913z" />
<glyph unicode="u" d="M104 1104h240l43 -844h459l-23 864l240 -16l41 -1108h-938z" />
<glyph unicode="v" horiz-adv-x="1187" d="M109 1106h196l152 -803h184l195 803h278l-350 -1106h-449z" />
<glyph unicode="w" horiz-adv-x="1454" d="M92 1106h211l170 -787l180 570h107l315 -635l142 852h169l-202 -1106h-232l-213 524l-258 -524h-106z" />
<glyph unicode="x" horiz-adv-x="1269" d="M47 -2l369 596l-344 510h225l321 -418l230 416l211 -17l-289 -538l406 -549h-285l-324 510l-254 -510h-266z" />
<glyph unicode="y" d="M106 1065h238l43 -870h455l45 849h217l-62 -1720l-833 21l-16 172l673 43v465h-657z" />
<glyph unicode="z" horiz-adv-x="1126" d="M102 911v195h932l-16 -182l-21 -56l-702 -673h711l16 -195h-918l19 299l690 612h-711z" />
<glyph unicode="{" horiz-adv-x="696" d="M102 801v43l113 41l96 520l35 31l158 71l80 -88l-105 -114l-47 -381l-139 -103l139 -100l45 -485l84 -134l-119 -92l-153 123l-72 627z" />
<glyph unicode="|" horiz-adv-x="471" d="M102 0v287l27 620l-25 604l197 -14l41 -84v-549l27 -864h-267z" />
<glyph unicode="}" horiz-adv-x="696" d="M131 1446l184 45l162 -150l25 -469l88 -79l-17 -41l-92 -68l-71 -610l-134 -70l-133 62l99 127l47 505l119 82l-119 80l-47 467z" />
<glyph unicode="~" horiz-adv-x="827" d="M113 1401l149 110q68 45 107 45t188 -149l168 63v-157l-129 -60h-92l-156 125l-188 -96z" />
<glyph unicode="&#xa1;" horiz-adv-x="614" d="M102 0l23 1047l313 16l-45 -1063h-291zM152 1260v301q111 14 235.5 25t124.5 1q0 -8 -8 -66.5t-19.5 -137t-15.5 -105.5z" />
<glyph unicode="&#xa2;" horiz-adv-x="1122" d="M95 19.5q-1 11.5 3 21.5l4 10l54 981l45 58l420 12v194l129 13l8 -203l243 8l-6 -209h-227l29 -657l223 -4v-236h-213l10 -192l-196 18v174h-517q-8 0 -9 11.5zM395 905l11 -653l215 -2v655h-226z" />
<glyph unicode="&#xa3;" horiz-adv-x="933" d="M104 0l7 88l36 27l19 1351l24 25l504 31l-12 -142l-317 -26l12 -250l225 8l12 -133l-266 -27l19 -788l217 12l26 375h205l16 -551h-727z" />
<glyph unicode="&#xa5;" horiz-adv-x="1318" d="M121 1430l162 55l323 -498l170 -10l225 528l193 -26l-219 -521l237 11l-10 -127l-334 -33l-43 -164l312 -8l-4 -100l-306 -9l-16 -528h-211l43 520h-340l6 131l336 -18l-65 194l-318 9l-22 100h239z" />
<glyph unicode="&#xa6;" horiz-adv-x="573" d="M104 1460l224 33l67 -641q-55 -8 -75.5 -11t-89 -12.5t-73.5 -7.5t-30 4q0 8 -5 138.5t-10.5 289t-7.5 207.5zM154 623h245q51 -567 66 -652q-86 -16 -289 27z" />
<glyph unicode="&#xa7;" horiz-adv-x="1179" d="M102 813v86l174 340l19 203l12 82l760 -17l-14 -329l-142 -7l-26 177l-434 24l-13 -219l606 -305l33 -45v-336l-78 -76v-391h-843l16 360l158 -12l26 -172l492 49l29 117zM285 858l546 -278h107l18 157l-501 256l-99 13z" />
<glyph unicode="&#xa8;" horiz-adv-x="925" d="M104 1296l15 287l186 37l6 -344zM606 1630l215 15l-14 -377l-186 28z" />
<glyph unicode="&#xa9;" horiz-adv-x="978" d="M102 813l11 623l32 61l732 35q10 -684 0 -725q-4 -20 -7 -29zM242 883l460 -21l-12 221l-209 -8l13 156l198 8v219l-430 -31z" />
<glyph unicode="&#xaa;" horiz-adv-x="778" d="M104 928l23 278h416v191l-348 26v136l456 -78l25 -162v-463zM221 1004l299 -35l19 151h-297z" />
<glyph unicode="&#xab;" horiz-adv-x="1146" d="M104 627l396 460l123 -147l-314 -344l230 -391l26 -70l-176 -119q-272 537 -278 572zM504 563l407 498l123 -148l-286 -325v-82l225 -381l-172 -111z" />
<glyph unicode="&#xac;" horiz-adv-x="1294" d="M104 905l13 209l239 -8l820 -10l16 -490l-199 -6l-35 305h-854z" />
<glyph unicode="&#xad;" d="M102 670v256q45 -2 463 -12.5t504 -12.5q16 -92 33 -256z" />
<glyph unicode="&#xae;" horiz-adv-x="978" d="M102 813l11 623l32 61l732 35q10 -684 0 -725q-4 -20 -7 -29zM254 883l192 -27l9 209h63l17 -211l206 -12l-53 266l47 16l-18 314l-68 41l-395 -47v-549zM453 1298l104 21l12 -105l-110 -6z" />
<glyph unicode="&#xaf;" horiz-adv-x="917" d="M104 1333l7 160l702 23l-6 -203z" />
<glyph unicode="&#xb0;" horiz-adv-x="630" d="M102 1163v324l35 29h375l16 -355l-16 -12q-328 -35 -373 -12zM203 1235l164 6l43 12v183l-203 -27z" />
<glyph unicode="&#xb1;" horiz-adv-x="1224" d="M106 0l15 156l405 -9v453l-381 8v187l381 -11v299l158 17l43 -309l393 -21l-10 -182l-403 8l14 -455l323 -6l17 -135h-686h-269z" />
<glyph unicode="&#xb2;" horiz-adv-x="600" d="M104 1475l15 79l237 19l66 -2l59 -55l8 -56l-26 -106l-199 -164l230 -10l-7 -80l-376 22v74l225 178l-33 101h-199z" />
<glyph unicode="&#xb3;" horiz-adv-x="567" d="M104 1468l7 88h213l102 -40l37 -39l2 -9q-2 -6 -3 -22t-1 -25q-2 -20 -6 -70.5t-6 -70.5q-16 -156 -21 -188q-272 18 -317 8q0 10 6 28q2 6 16 52l172 -11l25 121l-180 8l6 68l149 18l-29 93z" />
<glyph unicode="&#xb4;" horiz-adv-x="614" d="M119 1221l162 364l211 -53l-142 -221l-125 -101z" />
<glyph unicode="&#xb5;" horiz-adv-x="1056" d="M102 -410l27 1506l231 -13l-43 -829l412 -10l16 846h207l-43 -897l37 -78v-97h-661l-19 -428h-164z" />
<glyph unicode="&#xb6;" horiz-adv-x="1298" d="M102 956l9 560h471l598 -17l16 -1497l-190 12l-11 881l-221 12l10 -907h-188l-8 903l-453 27zM227 1325l11 -258l323 10l10 314l-305 10zM784 1116l162 -39l19 281l-181 14v-256z" />
<glyph unicode="&#xb7;" horiz-adv-x="552" d="M102 803v317l304 -20l38 -297h-342z" />
<glyph unicode="&#xb8;" horiz-adv-x="512" d="M113 -309l143 135v174h143l-61 -233l-186 -138z" />
<glyph unicode="&#xb9;" horiz-adv-x="458" d="M104 1411l15 88q18 8 65 19q37 8 84 55h88v-457l-123 12l-10 283h-119z" />
<glyph unicode="&#xba;" horiz-adv-x="712" d="M102 1501l19 23h463l26 -613l-10 -49l-489 33zM227 1001l240 -12l-21 432l-208 -12z" />
<glyph unicode="&#xbb;" horiz-adv-x="1146" d="M113 913l123 148l407 -498l-297 -549l-170 111l225 381v82zM524 940l125 147l393 -460l-6 -39q-6 -39 -278 -572l-176 119l256 461z" />
<glyph unicode="&#xbc;" horiz-adv-x="1144" d="M104 1411l15 88q18 8 65 19q37 8 84 55h88v-457l-123 12l-10 283h-119zM209 846l473 588l66 -29l-336 -492l-133 -125zM735 831v291l86 -6l-8 -213h117l8 187h88l-2 -207l96 -6l4 -68l-98 -6l-2 -156l-76 -6v158z" />
<glyph unicode="&#xbd;" horiz-adv-x="1073" d="M104 1411l15 88q18 8 65 19q37 8 84 55h88v-457l-123 12l-10 283h-119zM209 846l475 588l66 -29l-338 -492l-133 -125zM596 1024l14 80l238 18l65 -2l60 -55l8 -55l-27 -107l-198 -164l229 -10l-6 -80l-377 23v73l225 179l-32 100h-199z" />
<glyph unicode="&#xbe;" horiz-adv-x="1228" d="M104 1468l7 88h213l102 -40l37 -39l2 -9q-2 -6 -3 -22t-1 -25q-2 -20 -6 -70.5t-6 -70.5q-16 -156 -21 -188q-272 18 -317 8q0 10 6 28q2 6 16 52l172 -11l25 121l-180 8l6 68l149 18l-29 93zM295 846l471 588l65 -29l-333 -492l-133 -125zM735 831v291l86 -6l-8 -213 h117l8 187h88l-2 -207l96 -6l4 -68l-98 -6l-2 -156l-76 -6v158z" />
<glyph unicode="&#xbf;" horiz-adv-x="1228" d="M106 629l408 147l23 320h262v-402l-416 -151l51 -375l692 43v-211h-895l-43 29zM563 1563l256 -17l-16 -256l-223 17z" />
<glyph unicode="&#xc0;" horiz-adv-x="1249" d="M104 0l64 733l125 762l645 21l33 -64l252 -1452h-297l-64 596l-413 25l-66 -621h-279zM348 1921l211 53l162 -364l-113 -11l-119 101zM463 795h366l-69 417l-150 27h-96z" />
<glyph unicode="&#xc1;" horiz-adv-x="1249" d="M104 0l64 733l125 762l645 21l33 -64l252 -1452h-297l-64 596l-413 25l-66 -621h-279zM463 795h366l-69 417l-150 27h-96zM467 1610l162 364l211 -53l-142 -221l-125 -101z" />
<glyph unicode="&#xc2;" horiz-adv-x="1249" d="M104 0l64 733l125 762l645 21l33 -64l252 -1452h-297l-64 596l-413 25l-66 -621h-279zM254 1729l328 194h94l242 -168l-87 -80l-219 49l-215 -120zM463 795h366l-69 417l-150 27h-96z" />
<glyph unicode="&#xc3;" horiz-adv-x="1249" d="M104 0l64 733l125 762l645 21l33 -64l252 -1452h-297l-64 596l-413 25l-66 -621h-279zM297 1749l149 111q68 45 107 45t188 -150l168 64v-158l-129 -59h-92l-156 124l-188 -96zM463 795h366l-69 417l-150 27h-96z" />
<glyph unicode="&#xc4;" horiz-adv-x="1249" d="M104 0l64 733l125 762l645 21l33 -64l252 -1452h-297l-64 596l-413 25l-66 -621h-279zM248 1624l14 287l187 37l6 -344zM463 795h366l-69 417l-150 27h-96zM750 1958l215 14l-15 -377l-186 29z" />
<glyph unicode="&#xc5;" horiz-adv-x="1249" d="M104 0l64 733l125 762l645 21l33 -64l252 -1452h-297l-64 596l-413 25l-66 -621h-279zM432 1616l25 334l372 -8l-16 -343zM463 795h366l-69 417l-150 27h-96zM549 1690h151l17 182l-168 -17v-165z" />
<glyph unicode="&#xc6;" horiz-adv-x="1740" d="M104 0l62 733l125 762l549 21l32 -64l93 -473l34 -31v547h580l16 -100v-72h-272l-51 -381l305 -22l16 -152h-274v-571l319 -43v-154h-749l-64 596l-399 25l-64 -621h-258zM440 768h344l-67 444l-131 27h-97z" />
<glyph unicode="&#xc7;" horiz-adv-x="933" d="M102 12l23 1483h594v-111l-336 -41l70 -1114l358 -43l16 -174h-278l-72 -266l-162 -121l-34 56l127 118v213h-306z" />
<glyph unicode="&#xc8;" horiz-adv-x="880" d="M102 0v1495h711l18 -98v-72h-370l-55 -383l405 -22l16 -152h-370v-573l422 -41v-154h-777zM225 1921l211 53l162 -364l-113 -11l-118 101z" />
<glyph unicode="&#xc9;" horiz-adv-x="880" d="M102 0v1495h711l18 -98v-72h-370l-55 -383l405 -22l16 -152h-370v-573l422 -41v-154h-777zM262 1610l162 364l211 -53l-141 -221l-125 -101z" />
<glyph unicode="&#xca;" horiz-adv-x="880" d="M102 0v1495h711l18 -98v-72h-370l-55 -383l405 -22l16 -152h-370v-573l422 -41v-154h-777zM111 1729l327 194h94l242 -168l-86 -80l-219 49l-215 -120z" />
<glyph unicode="&#xcb;" horiz-adv-x="880" d="M102 0v1495h711l18 -98v-72h-370l-55 -383l405 -22l16 -152h-370v-573l422 -41v-154h-777zM125 1624l14 287l187 37l6 -344zM627 1958l215 14l-15 -377l-186 29z" />
<glyph unicode="&#xcc;" horiz-adv-x="573" d="M61 1921l211 53l162 -364l-112 -11l-119 101zM102 1516h248q2 -6 8.5 -26t10.5 -30l20 -63l96 -1397h-358z" />
<glyph unicode="&#xcd;" horiz-adv-x="573" d="M98 1610l162 364l211 -53l-141 -221l-125 -101zM102 1516h248q2 -6 8.5 -26t10.5 -30l20 -63l96 -1397h-358z" />
<glyph unicode="&#xce;" horiz-adv-x="573" d="M-135 1729l328 194h94l241 -168l-86 -80l-219 49l-215 -120zM102 1516h248q2 -6 8.5 -26t10.5 -30l20 -63l96 -1397h-358z" />
<glyph unicode="&#xcf;" horiz-adv-x="573" d="M-100 1624l14 287l186 37l6 -344zM102 1516h248q2 -6 8.5 -26t10.5 -30l20 -63l96 -1397h-358zM401 1958l215 14l-14 -377l-186 29z" />
<glyph unicode="&#xd0;" horiz-adv-x="1200" d="M104 709l7 163l92 -8v652l590 20l219 -156l86 -1190l-99 -151q-133 -39 -174 -39h-622v713zM440 1286l21 -432l258 -4l6 -133l-256 -2l18 -418l318 25l53 131l-45 780z" />
<glyph unicode="&#xd1;" horiz-adv-x="1249" d="M102 0v1530h359l186 -414l264 -508q-39 766 -47 922h223l60 -1280v-250h-232q-92 231 -139 328l-395 751l41 -1079h-320zM277 1749l149 110q68 45 107 45t188 -149l168 63v-157l-129 -60h-92l-156 125l-188 -96z" />
<glyph unicode="&#xd2;" horiz-adv-x="1210" d="M102 1358l50 117l112 73l694 -20q84 -92 105 -156l61 -1286l-141 -86h-805l-55 254zM307 1921l211 53l162 -364l-113 -11l-118 101zM346 385l72 -186h485v637l-47 557l-510 -45v-963z" />
<glyph unicode="&#xd3;" horiz-adv-x="1210" d="M102 1358l50 117l112 73l694 -20q84 -92 105 -156l61 -1286l-141 -86h-805l-55 254zM346 385l72 -186h485v637l-47 557l-510 -45v-963zM446 1610l162 364l211 -53l-141 -221l-125 -101z" />
<glyph unicode="&#xd4;" horiz-adv-x="1210" d="M102 1358l50 117l112 73l694 -20q84 -92 105 -156l61 -1286l-141 -86h-805l-55 254zM254 1729l328 194h94l242 -168l-87 -80l-219 49l-215 -120zM346 385l72 -186h485v637l-47 557l-510 -45v-963z" />
<glyph unicode="&#xd5;" horiz-adv-x="1210" d="M102 1358l50 117l112 73l694 -20q84 -92 105 -156l61 -1286l-141 -86h-805l-55 254zM276 1749l150 111q68 45 106.5 45t188.5 -150l168 64v-158l-129 -59h-92l-156 124l-188 -96zM346 385l72 -186h485v637l-47 557l-510 -45v-963z" />
<glyph unicode="&#xd6;" horiz-adv-x="1210" d="M102 1358l50 117l112 73l694 -20q84 -92 105 -156l61 -1286l-141 -86h-805l-55 254zM227 1624l15 287l186 37l6 -344zM346 385l72 -186h485v637l-47 557l-510 -45v-963zM729 1958l215 14l-14 -377l-187 29z" />
<glyph unicode="&#xd7;" horiz-adv-x="1155" d="M109 432l321 279l-225 311l147 98l238 -303l284 242l162 -150l-293 -239l218 -330l-175 -100l-237 290l-383 -272z" />
<glyph unicode="&#xd8;" horiz-adv-x="1454" d="M106 301l121 123l-16 934l49 117l111 73l667 -20q59 -63 111 -158l84 88l106 -104l-186 -199l49 -1069l-137 -86h-780l-52 242l-83 -70zM451 385l71 -186h461v637l-2 135l-438 -467l-92 -78v-41zM451 653l514 529l-27 211l-487 -45v-695z" />
<glyph unicode="&#xd9;" horiz-adv-x="1372" d="M102 1536h260l76 -1262l525 25l26 178l21 1059h243l17 -78v-1458h-1127l-18 268zM471 1921l211 53l162 -364l-113 -11l-119 101z" />
<glyph unicode="&#xda;" horiz-adv-x="1372" d="M102 1536h260l76 -1262l525 25l26 178l21 1059h243l17 -78v-1458h-1127l-18 268zM549 1610l162 364l211 -53l-142 -221l-125 -101z" />
<glyph unicode="&#xdb;" horiz-adv-x="1372" d="M102 1536h260l76 -1262l525 25l26 178l21 1059h243l17 -78v-1458h-1127l-18 268zM315 1729l328 194h94l242 -168l-86 -80l-219 49l-215 -120z" />
<glyph unicode="&#xdc;" horiz-adv-x="1372" d="M102 1536h260l76 -1262l525 25l26 178l21 1059h243l17 -78v-1458h-1127l-18 268zM330 1624l14 287l186 37l7 -344zM831 1958l216 14l-15 -377l-186 29z" />
<glyph unicode="&#xdd;" horiz-adv-x="1392" d="M82 1540l252 16l297 -540l381 532l219 -100l-500 -617l21 -831h-303l-21 868l-22 72zM590 1610l162 364l211 -53l-142 -221l-125 -101z" />
<glyph unicode="&#xde;" horiz-adv-x="1163" d="M102 1171v353h215l9 -385l710 8l25 -758l-37 -14l-594 -35v-340h-276zM403 981l21 -457l485 11l-20 446h-486z" />
<glyph unicode="&#xdf;" horiz-adv-x="1044" d="M102 -408l27 1913l604 -30l43 -29l70 -477l88 -117l8 -602l-301 -250l-117 123l209 258l17 428l-420 -47l-6 -1157zM330 956l338 21l-54 360h-282z" />
<glyph unicode="&#xe0;" horiz-adv-x="1177" d="M104 535l725 40v328l-688 41l-14 184h887l59 -1128h-950zM307 141h529l-54 293l-475 -24v-269zM328 1511l211 54l161 -365l-112 -10l-119 100z" />
<glyph unicode="&#xe1;" horiz-adv-x="1177" d="M104 535l725 40v328l-688 41l-14 184h887l59 -1128h-950zM307 141h529l-54 293l-475 -24v-269zM385 1221l162 364l211 -53l-142 -221l-125 -101z" />
<glyph unicode="&#xe2;" horiz-adv-x="1177" d="M104 535l725 40v328l-688 41l-14 184h887l59 -1128h-950zM307 141h529l-54 293l-475 -24v-269zM233 1319l328 194h94l242 -168l-86 -79l-220 49l-215 -121z" />
<glyph unicode="&#xe3;" horiz-adv-x="1177" d="M104 535l725 40v328l-688 41l-14 184h887l59 -1128h-950zM307 141h529l-54 293l-475 -24v-269zM256 1340l149 110q68 45 107 45t188 -149l168 63v-157l-129 -60h-92l-156 125l-188 -96z" />
<glyph unicode="&#xe4;" horiz-adv-x="1177" d="M104 535l725 40v328l-688 41l-14 184h887l59 -1128h-950zM186 1296l15 287l186 37l6 -344zM307 141h529l-54 293l-475 -24v-269zM688 1630l215 15l-14 -377l-187 28z" />
<glyph unicode="&#xe5;" horiz-adv-x="1177" d="M104 535l725 40v328l-688 41l-14 184h887l59 -1128h-950zM307 141h529l-54 293l-475 -24v-269zM371 1227l24 334l373 -9l-16 -342zM487 1300h152l16 183l-168 -17v-166z" />
<glyph unicode="&#xe6;" horiz-adv-x="1945" d="M104 532l705 41v330l-668 41l-16 184h729l66 -4l825 23l78 -17l18 -589l-721 -23v-346l664 23l31 -195h-736h-245h-713zM301 141h514l-53 271l-461 -25v-246zM1118 971l27 -277q506 -16 506 31q0 72 -2 119q-8 100 -29 121q-23 23 -147.5 24.5t-239.5 -8.5z" />
<glyph unicode="&#xe7;" horiz-adv-x="1105" d="M102 -16v1101l816 21l18 -195l-590 -43l-24 -618l643 22l34 -258l-413 -12v-217l-148 -145l-24 81l86 105l-17 174z" />
<glyph unicode="&#xe8;" horiz-adv-x="1228" d="M102 0l21 1106l881 41l79 -17l21 -655l-748 -22l58 -258h673l33 -195h-1018zM360 948l29 -319l520 30l-4 140l-28 143zM389 1511l211 54l162 -365l-113 -10l-119 100z" />
<glyph unicode="&#xe9;" horiz-adv-x="1228" d="M102 0l21 1106l881 41l79 -17l21 -655l-748 -22l58 -258h673l33 -195h-1018zM360 948l29 -319l520 30l-4 140l-28 143zM467 1221l162 364l211 -53l-142 -221l-125 -101z" />
<glyph unicode="&#xea;" horiz-adv-x="1228" d="M102 0l21 1106l881 41l79 -17l21 -655l-748 -22l58 -258h673l33 -195h-1018zM360 948l29 -319l520 30l-4 140l-28 143zM254 1319l328 194h94l242 -168l-86 -79l-220 49l-215 -121z" />
<glyph unicode="&#xeb;" horiz-adv-x="1228" d="M102 0l21 1106l881 41l79 -17l21 -655l-748 -22l58 -258h673l33 -195h-1018zM248 1296l14 287l187 37l6 -344zM360 948l29 -319l520 30l-4 140l-28 143zM750 1630l215 15l-15 -377l-186 28z" />
<glyph unicode="&#xec;" horiz-adv-x="573" d="M20 1532l211 53l162 -364l-112 -11l-119 101zM102 1085h273l94 -1083l-342 18z" />
<glyph unicode="&#xed;" horiz-adv-x="573" d="M102 1085h273l94 -1083l-342 18zM119 1221l162 364l211 -53l-142 -221l-125 -101z" />
<glyph unicode="&#xee;" horiz-adv-x="716" d="M29 1319l327 194h95l241 -167l-86 -80l-219 49l-215 -121zM225 1085h273l94 -1083l-342 18z" />
<glyph unicode="&#xef;" horiz-adv-x="659" d="M-39 1296l14 287l187 37l6 -344zM164 1085h272l94 -1083l-342 18zM463 1630l215 15l-14 -377l-187 28z" />
<glyph unicode="&#xf0;" horiz-adv-x="974" d="M102 219v410l33 49l395 80v203l-73 28l-189 -141l-10 -2l-59 63l157 121l-184 74l51 151l281 -114l227 172l57 -76l-159 -119l209 -692l32 -426h-581zM285 293l34 -133h338l-32 424l-281 10z" />
<glyph unicode="&#xf1;" horiz-adv-x="1003" d="M102 0v1106l772 -21l44 -30l63 -1055h-262v887l-375 26v-913h-242zM174 1339l150 111q68 45 106.5 45t187.5 -149l168 63v-158l-129 -59h-92l-155 125l-189 -96z" />
<glyph unicode="&#xf2;" horiz-adv-x="1089" d="M102 49l23 1038l10 19l840 -8l10 -135l-16 -392l-31 -602q-193 10 -389 17q-94 2 -197.5 5t-167 6t-69.5 3q-23 0 -13 49zM324 219l438 -24v714l-438 25v-715zM348 1532l211 53l162 -364l-113 -11l-119 101z" />
<glyph unicode="&#xf3;" horiz-adv-x="1089" d="M102 49l23 1038l10 19l840 -8l10 -135l-16 -392l-31 -602q-193 10 -389 17q-94 2 -197.5 5t-167 6t-69.5 3q-15 0 -16 23q0 11 3 26zM324 219l438 -24v714l-438 25v-715zM426 1221l162 364l211 -53l-142 -221l-125 -101z" />
<glyph unicode="&#xf4;" horiz-adv-x="1089" d="M102 49l23 1038l10 19l840 -8l10 -135l-16 -392l-31 -602q-193 10 -389 17q-94 2 -197.5 5t-167 6t-69.5 3q-15 0 -16 23q0 11 3 26zM324 219l438 -24v714l-438 25v-715zM192 1319l328 194h94l242 -168l-86 -79l-220 49l-215 -121z" />
<glyph unicode="&#xf5;" horiz-adv-x="1089" d="M102 49l23 1038l10 19l840 -8l10 -135l-16 -392l-31 -602q-193 10 -389 17q-94 2 -197.5 5t-167 6t-69.5 3q-15 0 -16 23q0 11 3 26zM324 219l438 -24v714l-438 25v-715zM236 1340l149 110q68 45 107 45t188 -149l168 63v-157l-129 -60h-92l-156 125l-188 -96z" />
<glyph unicode="&#xf6;" horiz-adv-x="1089" d="M102 49l23 1038l10 19l840 -8l10 -135l-16 -392l-31 -602q-193 10 -389 17q-94 2 -197.5 5t-167 6t-69.5 3q-23 0 -13 49zM186 1296l15 287l186 37l6 -344zM324 219l438 -24v714l-438 25v-715zM688 1630l215 15l-14 -377l-187 28z" />
<glyph unicode="&#xf7;" d="M102 666v237q590 -14 967 -20q14 -66 33 -236zM479 1094v288l166 -12l35 -297zM514 512l207 -20l31 -365l-230 18z" />
<glyph unicode="&#xf8;" horiz-adv-x="1372" d="M109 174l129 96l16 817l8 19l846 -2l-10 -182l110 84l52 -76l-166 -129q-6 -152 -16.5 -356.5t-17.5 -334.5t-7 -141q-25 -8 -55.5 -6t-141.5 11.5t-184 11.5l-445 14l9 170l-105 -66zM406 199l497 -27v479l-397 -309l-100 -63v-80zM406 397l497 377v178l-497 25v-580z " />
<glyph unicode="&#xf9;" d="M104 1104h240l43 -844h459l-23 864l240 -16l41 -1108h-938zM348 1532l211 53l162 -364l-113 -11l-119 101z" />
<glyph unicode="&#xfa;" d="M104 1104h240l43 -844h459l-23 864l240 -16l41 -1108h-938zM488 1221l162 364l211 -53l-142 -221l-125 -101z" />
<glyph unicode="&#xfb;" d="M104 1104h240l43 -844h459l-23 864l240 -16l41 -1108h-938zM192 1319l328 194h94l242 -168l-86 -79l-220 49l-215 -121z" />
<glyph unicode="&#xfc;" d="M104 1104h240l43 -844h459l-23 864l240 -16l41 -1108h-938zM207 1296l14 287l187 37l6 -344zM709 1630l215 15l-15 -377l-186 28z" />
<glyph unicode="&#xfd;" d="M106 1065h238l43 -870h455l45 849h217l-62 -1720l-833 21l-16 172l673 43v465h-657zM549 1139l162 364l211 -53l-142 -221l-125 -101z" />
<glyph unicode="&#xfe;" horiz-adv-x="1081" d="M102 1106h191v-377l610 19l41 -11l33 -721l-625 -8l10 -418h-243zM371 580l10 -414l438 20l-33 414z" />
<glyph unicode="&#xff;" d="M106 1065h238l43 -870h455l45 849h217l-62 -1720l-833 21l-16 172l673 43v465h-657zM268 1296l15 287l186 37l6 -344zM770 1630l215 15l-14 -377l-186 28z" />
<glyph unicode="&#x131;" horiz-adv-x="573" d="M102 1085h273l94 -1083l-342 18z" />
<glyph unicode="&#x152;" horiz-adv-x="1658" d="M102 1358l50 117l110 73l664 -20l30 -35h541l16 -98v-72h-274l-51 -383l307 -20l16 -152h-276v-571l321 -43v-154h-595h-78h-705l-55 254zM342 385l70 -186h458v637q0 127 -11 266t-23 215l-11 76l-483 -45v-963z" />
<glyph unicode="&#x153;" horiz-adv-x="1822" d="M113 0l10 1085l10 19h596l893 43l78 -17l20 -589l-729 -23l53 -321h617l33 -195h-783q-33 -18 -135 -20t-241 4zM272 197l473 -23l13 776l-486 25v-778zM993 948l29 -254q508 -16 508 31q0 27 -4 109q-8 90 -27 108q-23 23 -149.5 25t-241.5 -9z" />
<glyph unicode="&#x178;" horiz-adv-x="1392" d="M82 1540l252 16l297 -540l381 532l219 -100l-500 -617l21 -831h-303l-21 868l-22 72zM309 1624l15 287l186 37l6 -344zM811 1958l215 14l-14 -377l-187 29z" />
<glyph unicode="&#x2c6;" horiz-adv-x="921" d="M131 1401l328 194h94l242 -168l-86 -79l-220 49l-215 -121z" />
<glyph unicode="&#x2dc;" horiz-adv-x="827" d="M113 1401l149 110q68 45 107 45t188 -149l168 63v-157l-129 -60h-92l-156 125l-188 -96z" />
<glyph unicode="&#x2000;" horiz-adv-x="987" />
<glyph unicode="&#x2001;" horiz-adv-x="1974" />
<glyph unicode="&#x2002;" horiz-adv-x="987" />
<glyph unicode="&#x2003;" horiz-adv-x="1974" />
<glyph unicode="&#x2004;" horiz-adv-x="657" />
<glyph unicode="&#x2005;" horiz-adv-x="493" />
<glyph unicode="&#x2006;" horiz-adv-x="327" />
<glyph unicode="&#x2007;" horiz-adv-x="327" />
<glyph unicode="&#x2008;" horiz-adv-x="245" />
<glyph unicode="&#x2009;" horiz-adv-x="393" />
<glyph unicode="&#x200a;" horiz-adv-x="108" />
<glyph unicode="&#x2010;" d="M102 670v256q45 -2 463 -12.5t504 -12.5q16 -92 33 -256z" />
<glyph unicode="&#x2011;" d="M102 670v256q45 -2 463 -12.5t504 -12.5q16 -92 33 -256z" />
<glyph unicode="&#x2012;" d="M102 670v256q45 -2 463 -12.5t504 -12.5q16 -92 33 -256z" />
<glyph unicode="&#x2013;" horiz-adv-x="983" d="M102 678v248q74 -2 380 -12.5t362 -12.5q20 -129 33 -248z" />
<glyph unicode="&#x2014;" horiz-adv-x="1634" d="M102 680v248q98 0 716 -3t712 -5q6 -76 -21 -273z" />
<glyph unicode="&#x2018;" horiz-adv-x="499" d="M102 1284l95 186l34 19v-193l156 -18l10 -287h-276z" />
<glyph unicode="&#x2019;" horiz-adv-x="516" d="M104 1249l9 275l301 -8l-11 -285l-73 -187l-39 -20l-19 225h-168z" />
<glyph unicode="&#x201a;" horiz-adv-x="516" d="M104 266l9 275l301 -9l-11 -284l-73 -187l-39 -20l-19 225h-168z" />
<glyph unicode="&#x201c;" horiz-adv-x="860" d="M102 1223l17 293h239l-6 -287l-137 -21v-190l-29 18zM483 1516l267 8l8 -273h-152l-16 -227l-33 20l-65 187z" />
<glyph unicode="&#x201d;" horiz-adv-x="860" d="M104 1251l7 273l266 -8l-8 -285l-66 -187l-33 -20l-16 227h-150zM502 1516h239l17 -293l-82 -187l-31 -18v190l-137 21z" />
<glyph unicode="&#x201e;" horiz-adv-x="786" d="M102 446h207l-33 -448h-153zM455 2v451h223l-57 -469z" />
<glyph unicode="&#x2022;" horiz-adv-x="901" d="M104 991l54 70l573 51l68 -543l-8 -26l-631 -33l-23 133z" />
<glyph unicode="&#x2026;" horiz-adv-x="1314" d="M102 0v317l265 -20l34 -297h-299zM518 289h283l18 -289h-274zM934 0l29 279h241l8 -279h-278z" />
<glyph unicode="&#x202f;" horiz-adv-x="393" />
<glyph unicode="&#x2039;" horiz-adv-x="589" d="M102 670v80l248 266l127 -117l-160 -242l129 -272l-176 -78z" />
<glyph unicode="&#x203a;" horiz-adv-x="589" d="M113 899l127 117l247 -266v-80l-168 -363l-176 78l129 272z" />
<glyph unicode="&#x205f;" horiz-adv-x="493" />
<glyph unicode="&#x20ac;" horiz-adv-x="1392" d="M102 879v114l172 -8v453l41 78l940 -9l-8 -315l-141 -12l-51 196l-549 -28l-21 -336h424v-152l-387 -16v-168l381 26l6 -157l-389 -17l10 -352l527 -29l43 259h188l-22 -377l-146 -29l-717 16l-67 76l-29 447h-190l-13 131h199l-12 209h-189z" />
<glyph unicode="&#x2122;" horiz-adv-x="1196" d="M106 1399l11 114l411 -32l13 -101l-193 -18l35 -387l-98 6l-19 410zM618 1479h99l108 -432l133 417l95 11l39 -555l-84 20l-17 115l-90 -109h-98l-103 141v-133h-65z" />
<glyph unicode="&#xe000;" horiz-adv-x="1105" d="M0 1105h1105v-1105h-1105v1105z" />
<glyph unicode="&#xfb01;" horiz-adv-x="1363" d="M102 952v156l193 41l22 356l64 31h461v-152q-184 -18 -232 -18q-49 -6 -28 -264l321 -23l275 -12l82 -1065l-302 18l-18 889l-362 -24l22 -885h-283l-43 952h-172zM958 1235v297h218v-281z" />
<glyph unicode="&#xfb02;" horiz-adv-x="1277" d="M102 952v156l195 41l22 356l62 31l524 -8l207 6l62 -1534h-248l8 1386q-287 -20 -322 -20q-23 0 -30 -65.5t-2 -131.5l4 -65l200 -21v-178l-204 -20l22 -885h-285l-43 952h-172z" />
<glyph unicode="&#xfb03;" horiz-adv-x="2457" d="M1986 1067h273l94 -1065l-342 18zM2011 1235v297h246v-281zM1003 952v156l199 41l23 356l63 31h535v-152l-299 -18l-31 -264l330 -21v-174l-332 -22l20 -885h-288l-43 952h-177zM61 952v156l199 41l23 356l63 31h535v-152l-299 -18l-31 -264l330 -21v-174l-332 -22 l20 -885h-288l-43 952h-177z" />
<glyph unicode="&#xfb04;" horiz-adv-x="2396" d="M1974 0q-6 427 -6 744q0 555 18 774l234 16l72 -1534h-318zM1003 952v156l199 41l23 356l63 31h535v-152l-299 -18l-31 -264l330 -21v-174l-332 -22l20 -885h-288l-43 952h-177zM61 952v156l199 41l23 356l63 31h535v-152l-299 -18l-31 -264l330 -21v-174l-332 -22 l20 -885h-288l-43 952h-177z" />
</font>
</defs>
</svg>
